<?xml version="1.0" standalone="no"?><!DOCTYPE svg PUBLIC "-//W3C//DTD SVG 1.1//EN" "http://www.w3.org/Graphics/SVG/1.1/DTD/svg11.dtd"><svg t="1569553768901" class="icon" viewBox="0 0 1024 1024" version="1.1" xmlns="http://www.w3.org/2000/svg" p-id="5758" xmlns:xlink="http://www.w3.org/1999/xlink" width="200" height="200"><defs><style type="text/css"></style></defs><path d="M412.16 885.76H192.512c-12.8 0-23.552-11.776-23.552-25.6V125.952c0-13.824 10.752-25.6 23.552-25.6h594.944c12.8 0 23.552 11.776 23.552 25.6v384c0 18.944 15.36 34.816 34.816 34.816s34.816-15.36 34.816-34.816v-384C880.64 73.216 838.656 30.72 787.456 30.72H192.512c-51.2 0-93.184 42.496-93.184 95.232V860.16c0 52.224 41.984 95.232 93.184 95.232h219.648c18.944 0 34.816-15.36 34.816-34.816-0.512-19.456-15.872-34.816-34.816-34.816z" p-id="5759" fill="#ced4de"></path><path d="M681.984 245.248H297.472c-18.944 0-34.816 15.36-34.816 34.816s15.36 34.816 34.816 34.816h384.512c18.944 0 34.816-15.36 34.816-34.816s-15.36-34.816-34.816-34.816zM681.984 425.472H297.472c-18.944 0-34.816 15.36-34.816 34.816 0 18.944 15.36 34.816 34.816 34.816h384.512c18.944 0 34.816-15.36 34.816-34.816 0-18.944-15.36-34.816-34.816-34.816zM445.952 606.208H297.984c-18.944 0-34.816 15.36-34.816 34.816s15.36 34.816 34.816 34.816h147.968c18.944 0 34.816-15.36 34.816-34.816s-15.872-34.816-34.816-34.816zM785.92 993.28c-12.288 0-24.064-5.12-31.744-13.312l-3.072-3.584c-7.168-6.656-15.872-10.24-25.6-10.24s-18.944 3.584-26.112 10.24l-3.072 3.584c-7.68 8.192-19.968 13.312-32.256 13.312-4.608 0-9.216-0.512-13.312-2.048-1.536-0.512-9.216-3.584-25.6-12.8s-22.528-14.848-24.064-15.36c-12.288-10.24-17.92-29.696-13.312-44.544l1.536-5.12c4.096-18.944-7.168-37.888-25.6-43.52l-4.608-1.024c-15.36-3.584-29.184-17.92-32.256-33.792 0-0.512-1.536-8.704-1.536-28.16 0-18.944 1.536-27.136 1.536-28.672 2.56-15.36 16.896-30.208 32.256-33.792l5.12-1.024c8.704-2.56 16.384-8.704 20.992-16.896 4.608-8.192 6.144-17.92 4.096-27.136l-1.536-4.608c-4.608-16.384 0.512-33.28 12.8-44.544 1.536-1.024 7.68-6.656 24.064-15.872 14.336-8.192 23.04-11.776 25.6-12.8 3.584-1.536 8.192-2.048 12.8-2.048 12.288 0 24.576 5.12 32.256 13.312l3.584 4.096c6.656 6.144 15.872 9.728 25.6 9.728s18.432-3.584 25.6-9.728l3.584-3.584c7.68-8.192 19.968-13.312 32.256-13.312 4.608 0 9.216 0.512 13.312 2.048 2.048 1.024 9.728 4.096 25.6 12.8 15.872 9.216 22.016 14.336 24.064 15.36 12.288 10.24 17.92 29.696 13.312 44.544l-1.536 5.12c-2.048 8.704-0.512 18.432 4.096 26.624s12.288 14.336 21.504 16.896l5.12 1.024c15.36 3.584 29.184 17.92 32.256 33.792 0 1.536 1.536 9.216 1.536 28.16s-1.536 27.136-1.536 28.672c-2.56 15.36-16.896 30.208-32.256 33.792l-4.608 1.024c-18.944 5.632-30.208 25.088-25.6 44.032l1.536 4.608c4.608 15.36-0.512 34.304-13.312 44.544-1.536 1.536-8.192 6.656-24.064 15.36-15.36 8.704-23.552 11.776-25.6 12.8-4.608 1.536-9.216 2.048-13.824 2.048z m-148.48-66.56c2.56 1.536 7.168 4.608 13.312 8.192 6.144 3.584 10.752 5.632 13.824 7.168l1.024-1.024 1.024-1.024c15.872-15.36 36.864-23.552 58.88-23.552s43.008 8.192 58.88 23.552l0.512 0.512 1.024 1.024c2.56-1.536 7.168-3.584 13.824-7.168 6.144-3.584 10.752-6.144 13.312-8.192l-0.512-2.048-0.512-1.536c-5.12-20.992-1.536-43.008 9.216-61.952 11.264-18.944 28.672-32.768 49.664-38.912l1.536-0.512 1.024-0.512c0-3.072 0.512-8.192 0.512-15.36s-0.512-12.288-0.512-15.36l-2.048-0.512h-1.024c-20.992-6.144-38.4-19.968-49.664-38.912-10.752-18.432-14.336-40.448-9.216-61.952l0.512-2.048 0.512-1.536c-3.072-2.048-9.216-5.632-13.312-7.68-6.144-3.584-10.752-5.632-13.824-7.168l-1.536 1.536-1.024 1.024c-15.872 14.848-36.864 23.04-58.88 23.04s-42.496-8.192-58.368-23.04l-1.536-1.536-1.024-1.024c-2.56 1.536-7.168 3.584-13.824 7.168-6.144 3.584-10.24 6.144-13.312 8.192l0.512 2.56c5.12 21.504 2.048 43.52-9.216 62.464-10.752 18.944-28.16 32.768-49.152 38.912l-1.024 0.512-2.048 0.512c0 3.072-0.512 8.192-0.512 15.36s0 12.288 0.512 15.36l1.536 0.512 1.536 0.512c20.992 6.144 38.912 19.968 49.664 38.912 10.752 18.944 14.336 40.96 9.216 61.952l-0.512 2.048 1.024 1.536z m86.016-33.28c-30.72 0-59.392-16.384-74.752-43.008-15.872-27.136-15.872-60.416 0-87.552 15.36-26.624 44.032-43.008 74.752-43.008h1.536c47.104 1.024 84.992 39.936 84.992 86.528s-38.4 86.016-84.992 86.528l-1.536 0.512z m0.512-126.464c-21.504 0-38.4 17.408-38.4 38.4 0 10.24 4.096 19.968 11.264 27.136 7.168 7.168 16.896 11.264 27.136 11.264 21.504 0 38.912-17.408 38.912-38.4s-17.408-37.888-38.912-38.4v-11.776 11.776z" p-id="5760" fill="#ced4de"></path></svg>