<?xml version="1.0" standalone="no"?><!DOCTYPE svg PUBLIC "-//W3C//DTD SVG 1.1//EN" "http://www.w3.org/Graphics/SVG/1.1/DTD/svg11.dtd"><svg t="1569553919515" class="icon" viewBox="0 0 1024 1024" version="1.1" xmlns="http://www.w3.org/2000/svg" p-id="7802" xmlns:xlink="http://www.w3.org/1999/xlink" width="200" height="200"><defs><style type="text/css"></style></defs><path d="M512 30.72C246.272 30.72 30.72 246.272 30.72 512s215.552 481.28 481.28 481.28 481.28-215.552 481.28-481.28-215.552-481.28-481.28-481.28z m254.464 652.8c-50.688-83.968-133.12-127.488-241.152-127.488h-37.376v99.84c0 29.696-23.552 50.176-50.176 30.208L190.464 500.736c-26.624-19.968-26.624-52.736 0-72.704L439.296 240.64c26.624-19.968 48.64-5.632 48.64 30.208v94.72h4.608c156.16 0 291.84 168.448 294.4 317.952-0.512 11.776-10.752 15.36-20.48 0z" p-id="7803" fill="#ced4de"></path></svg>