<?xml version="1.0" standalone="no"?><!DOCTYPE svg PUBLIC "-//W3C//DTD SVG 1.1//EN" "http://www.w3.org/Graphics/SVG/1.1/DTD/svg11.dtd"><svg t="1570777814981" class="icon" viewBox="0 0 1024 1024" version="1.1" xmlns="http://www.w3.org/2000/svg" p-id="2242" xmlns:xlink="http://www.w3.org/1999/xlink" width="200" height="200"><defs><style type="text/css"></style></defs><path d="M527.872 949.248c-14.336 0-29.184-2.56-43.008-6.656-21.504-6.656-41.472-17.408-58.88-31.744l-1.536-1.536-1.536-1.536c-66.048-63.488-283.648-273.92-319.488-323.072-30.72-41.472-52.224-90.112-61.44-140.8-12.288-76.8 7.68-150.528 60.928-219.648 25.6-34.816 59.392-62.976 98.304-81.408 31.744-14.848 65.536-22.528 99.84-23.04h7.68c39.424 0 78.848 8.704 114.688 25.088l1.024 0.512 0.512 0.512c32.256 22.016 63.488 46.08 92.16 72.704l1.536 1.536 78.336-62.464c24.576-17.92 53.76-29.696 83.456-34.816 11.776-2.048 23.552-3.072 35.328-3.072 18.432 0 36.864 2.56 54.784 7.168h0.512c39.424 11.264 75.264 30.208 106.496 56.832 32.256 25.6 58.368 57.344 77.824 93.696 13.824 27.136 23.04 55.808 27.648 85.504l0.512 2.048h0.512l1.024 10.24c3.584 37.376-0.512 74.24-10.752 110.08-7.168 25.6-18.432 49.664-34.304 71.168l-1.024 1.024c-40.96 48.64-247.808 293.376-320 355.84-25.6 23.04-57.344 35.328-91.136 35.84z m104.96-342.016c7.68 0 15.36 3.072 20.992 8.192 6.144 5.632 9.728 13.312 9.728 21.504 0.512 8.192-2.56 15.872-8.192 22.016l-197.12 197.12 2.048 2.048 6.144 6.144c11.776 9.216 24.064 15.872 37.888 19.968h0.512c7.168 2.56 14.848 3.584 22.528 3.584 18.944 0 36.352-7.168 50.176-19.968 69.632-60.416 288.256-319.488 312.832-349.184l0.512-0.512c10.752-14.848 18.432-31.744 23.04-49.152l2.048-8.192 0.512-2.048c6.144-25.088 8.192-51.2 6.144-77.312-6.144-59.392-36.864-113.664-83.968-150.016l-0.512-0.512c-24.576-20.992-52.736-35.84-83.456-45.056-12.8-3.584-25.6-5.12-38.912-5.12-8.192 0-16.896 0.512-25.088 2.048-19.968 3.584-38.912 11.264-55.808 22.528l-71.168 56.32 2.048 2.048c28.672 27.648 55.296 57.856 78.336 90.112l0.512 1.024c22.016 36.352 17.408 83.968-11.264 115.2-17.408 23.04-45.056 36.864-73.728 36.864-10.752 0-21.504-2.048-31.744-5.632l-0.512-0.512c-7.68-3.584-15.872-7.68-23.04-12.288l-2.56-1.024-1.024 3.072c-1.536 4.608-4.096 8.704-7.68 11.776l-196.608 196.608 2.048 2.048c13.312 12.8 26.112 25.6 37.376 36.864l2.048 1.536 198.144-198.144c5.632-5.632 13.824-9.216 21.504-9.216 8.192 0 15.872 3.072 22.016 9.216 5.632 5.632 9.216 13.312 9.216 21.504s-3.072 15.872-9.216 22.016l-197.632 197.632 2.048 2.048c9.216 8.704 18.432 17.92 28.672 27.648l2.048 1.536 198.144-198.144c4.608-5.12 12.288-8.192 19.968-8.192z m-215.04-184.832c-0.512 0.512-1.024 1.536-2.048 2.048l-196.608 196.096 1.536 2.048c9.216 9.216 18.944 19.456 30.208 30.72l2.048 2.048 196.608-196.608c1.024-1.024 2.56-2.56 3.584-3.072l2.56-2.048-2.56-2.048c-10.752-9.216-21.504-18.944-32.256-29.184l-2.048-2.048-1.024 2.048z m-115.2-240.64c-59.904 1.024-116.224 30.72-150.528 79.872-87.552 114.688-47.616 219.136 0.512 286.72l0.512 0.512c6.656 8.704 13.824 16.896 21.504 26.112l2.048 2.048 195.584-195.584 2.56-2.56h3.072l-2.048-3.584c-6.144-12.288-3.584-27.648 7.168-36.864 5.632-5.12 12.8-7.68 20.48-7.68 8.704 0 17.408 3.584 23.04 10.24 1.024 1.024 76.288 82.432 124.928 104.448 3.072 1.024 5.632 1.024 8.192 1.024 10.752 0 20.48-5.12 26.112-13.824l0.512-1.024 0.512-0.512c10.752-11.264 13.312-27.648 6.144-41.472-30.72-41.472-66.048-78.848-104.448-112.128l-0.512-0.512c-29.184-27.648-60.928-53.76-94.208-76.288-27.648-11.776-56.32-17.408-86.016-17.408-1.536-2.048-3.072-2.048-5.12-1.536z" p-id="2243" fill="#ced4de"></path></svg>