<?xml version="1.0" standalone="no"?><!DOCTYPE svg PUBLIC "-//W3C//DTD SVG 1.1//EN" "http://www.w3.org/Graphics/SVG/1.1/DTD/svg11.dtd"><svg t="1569553743560" class="icon" viewBox="0 0 1024 1024" version="1.1" xmlns="http://www.w3.org/2000/svg" p-id="5159" xmlns:xlink="http://www.w3.org/1999/xlink" width="200" height="200"><defs><style type="text/css"></style></defs><path d="M776.704 659.968c49.152 0 86.528 18.432 117.248 49.152s49.152 74.24 49.152 117.248c0 92.672-74.24 166.4-166.4 166.4s-166.4-74.24-166.4-166.4c0-18.432 6.144-36.864 6.144-55.296l-178.688-104.96-6.144 6.144c-49.152 43.008-104.96 68.096-166.4 68.096C140.8 740.352 35.84 635.392 35.84 512s104.96-228.352 228.352-228.352c61.952 0 123.392 24.576 160.256 68.096l6.144 6.144L609.28 252.928c0-18.432-6.144-36.864-6.144-55.296 0-92.672 74.24-166.4 166.4-166.4S936.96 104.96 936.96 197.12 862.72 363.52 770.56 363.52c-49.152 0-86.528-18.432-117.248-49.152l-179.2 104.96c12.288 30.72 18.432 61.952 18.432 92.672s-6.144 61.952-18.432 92.672l178.688 104.96c31.232-31.232 74.24-49.664 123.904-49.664z m61.44 98.816c-18.432-18.432-43.008-24.576-68.096-24.576-24.576 0-49.152 12.288-68.096 24.576-18.432 18.432-24.576 43.008-24.576 68.096 0 49.152 43.008 92.672 92.672 92.672 49.152 0 92.672-43.008 92.672-92.672 6.144-25.088-6.144-49.664-24.576-68.096zM375.296 400.896c-30.72-24.576-68.096-43.008-111.104-43.008-86.528 0-154.112 68.096-154.112 154.112s68.096 154.112 154.112 154.112c43.008 0 80.384-18.432 104.96-43.008 36.864-30.72 49.152-68.096 49.152-111.104s-11.776-80.384-43.008-111.104z m401.408-295.936c-49.152 0-92.672 43.008-92.672 92.672 0 18.432 6.144 36.864 12.288 49.152 6.144 6.144 6.144 12.288 12.288 12.288 18.432 18.432 43.008 24.576 68.096 24.576 49.152 0 92.672-43.008 92.672-92.672-0.512-43.008-43.52-86.016-92.672-86.016z" p-id="5160" fill="#ced4de"></path></svg>