<?xml version="1.0" standalone="no"?><!DOCTYPE svg PUBLIC "-//W3C//DTD SVG 1.1//EN" "http://www.w3.org/Graphics/SVG/1.1/DTD/svg11.dtd"><svg t="1569553734291" class="icon" viewBox="0 0 1024 1024" version="1.1" xmlns="http://www.w3.org/2000/svg" p-id="5011" xmlns:xlink="http://www.w3.org/1999/xlink" width="200" height="200"><defs><style type="text/css"></style></defs><path d="M228.352 993.28c-51.2 0-92.672-46.08-92.672-102.4v-231.936L38.912 419.84c-9.216-24.064-9.216-50.176 1.024-74.24 9.216-23.04 26.112-41.472 47.616-51.712L615.936 39.424c11.776-5.632 24.576-8.704 37.376-8.704 34.816 0 66.048 22.016 78.848 55.808l95.744 247.296h4.096c51.2 0 92.672 46.08 92.672 102.4V890.88c0 56.32-41.472 102.4-92.672 102.4H228.352z m0-584.192c-13.312 0-24.064 12.288-24.064 27.648V890.88c0 15.36 10.752 27.648 24.064 27.648h603.648c13.312 0 24.064-12.288 24.064-27.648V436.736c0-15.36-10.752-27.648-24.064-27.648H228.352z m424.96-303.104c-3.072 0-6.656 1.024-9.728 2.56L115.2 362.496c-5.632 2.56-10.24 7.68-12.8 13.312-2.048 4.608-2.048 9.216-0.512 13.824l33.792 83.456v-36.864c0-56.32 41.472-102.4 92.672-102.4h525.312l-84.48-218.112c-2.56-5.632-8.704-9.728-15.872-9.728zM460.288 841.216c-10.24 0-19.456-6.144-23.552-15.36-7.168-13.824-2.56-30.72 9.728-39.424l256-161.792c4.096-2.56 8.704-4.096 13.312-4.096 9.728 0 18.944 5.632 23.552 15.36 7.168 13.824 3.072 30.72-9.728 39.936l-256 161.792c-4.096 2.048-8.704 3.584-13.312 3.584z m-92.16-129.024c-10.752-0.512-19.968-6.656-24.064-16.384-6.656-14.336-1.536-31.744 11.776-38.912l250.368-140.8c3.584-2.048 8.192-3.072 12.288-3.072 10.24 0 19.456 6.144 24.064 16.384 6.656 14.336 1.024 31.744-11.776 39.424l-250.368 141.312c-3.584 1.024-7.68 2.048-12.288 2.048z" p-id="5012" fill="#ced4de"></path></svg>