<?xml version="1.0" standalone="no"?><!DOCTYPE svg PUBLIC "-//W3C//DTD SVG 1.1//EN" "http://www.w3.org/Graphics/SVG/1.1/DTD/svg11.dtd"><svg t="1570777796822" class="icon" viewBox="0 0 1024 1024" version="1.1" xmlns="http://www.w3.org/2000/svg" p-id="2098" xmlns:xlink="http://www.w3.org/1999/xlink" width="200" height="200"><defs><style type="text/css"></style></defs><path d="M502.272 996.864c-265.216 0-481.28-216.064-481.28-481.28s216.064-481.28 481.28-481.28 481.28 216.064 481.28 481.28-216.064 481.28-481.28 481.28z m0-906.752c-235.008 0-425.984 190.976-425.984 425.472 0 235.008 190.976 425.984 425.984 425.984 235.008 0 425.984-190.976 425.984-425.984 0-234.496-190.976-425.472-425.984-425.472z" p-id="2099" fill="#ced4de"></path><path d="M258.048 324.096H307.2V706.56h-49.152V324.096z m93.184-58.368h51.712v504.32H351.232V265.728z m394.752 56.32v50.688h-224.768c-18.944 43.52-41.984 80.896-67.584 109.568-10.24-7.68-32.768-22.528-46.08-29.184 46.08-46.08 80.384-119.808 98.816-197.12l51.2 10.24c-4.608 18.432-10.24 37.888-16.896 55.808h205.312z m-293.376 195.584h280.576v254.976h-52.736v-26.112H503.296v28.672h-50.688v-257.536z m50.688 50.176v130.56H568.32v-130.56H503.296z m131.072-65.024c-20.48-22.016-61.952-59.392-95.232-86.528l34.304-30.208c33.792 24.576 74.752 58.368 96.256 79.36l-35.328 37.376z m46.08 65.024h-64v130.56h64v-130.56z" p-id="2100" fill="#ced4de"></path></svg>