<?xml version="1.0" standalone="no"?><!DOCTYPE svg PUBLIC "-//W3C//DTD SVG 1.1//EN" "http://www.w3.org/Graphics/SVG/1.1/DTD/svg11.dtd"><svg t="1569569750061" class="icon" viewBox="0 0 1024 1024" version="1.1" xmlns="http://www.w3.org/2000/svg" p-id="2785" xmlns:xlink="http://www.w3.org/1999/xlink" width="200" height="200"><defs><style type="text/css"></style></defs><path d="M510.466 992.537c-56.233 0-112.977 0.511-169.21 0a1884.256 1884.256 0 0 1-107.354-4.6c-32.206-2.557-64.412-7.158-94.574-19.938-16.87-7.157-31.695-17.381-40.897-34.251-5.623-10.224-7.156-20.96-7.668-32.206-2.044-60.834 9.202-118.09 38.852-171.256 38.852-69.013 95.596-117.578 169.21-146.205 37.83-14.826 77.704-21.471 118.601-21.471H605.04c82.816 0.511 156.43 27.094 218.798 82.304 55.722 49.077 89.973 110.933 103.264 184.036 4.601 26.072 5.623 52.654 4.09 79.237-1.534 23.516-14.314 40.386-34.251 52.144-19.937 12.269-42.43 17.892-64.924 21.982-54.188 9.713-109.399 10.224-164.098 10.735-51.632-0.511-104.798-0.511-157.453-0.511z m248.96-704.958c0 106.332-71.059 202.95-177.902 237.712-136.492 43.964-280.654-30.672-324.106-165.12-32.207-98.664 2.044-209.085 84.35-272.986 39.362-30.673 83.838-49.076 133.425-54.188 129.336-13.292 244.87 69.013 276.564 189.147 5.112 20.449 7.157 41.408 7.668 65.435z" p-id="2786" fill="#ced4de"></path></svg>