<?xml version="1.0" standalone="no"?><!DOCTYPE svg PUBLIC "-//W3C//DTD SVG 1.1//EN" "http://www.w3.org/Graphics/SVG/1.1/DTD/svg11.dtd"><svg t="1569553893374" class="icon" viewBox="0 0 1024 1024" version="1.1" xmlns="http://www.w3.org/2000/svg" p-id="7358" xmlns:xlink="http://www.w3.org/1999/xlink" width="200" height="200"><defs><style type="text/css"></style></defs><path d="M868.864 444.416c0-38.4-31.232-69.632-70.144-69.632h-140.8V101.376c0-38.4-31.232-70.144-70.144-70.656-39.424 0-70.656 30.72-70.656 69.632v274.432H384c-38.912 0-70.144 31.232-70.144 69.632v69.632H872.96V448c-0.512-2.048-2.048-3.584-4.096-3.584z m0 139.264H309.76s-38.912 409.6-207.36 409.6h199.68c78.336 0 113.152-224.256 113.152-224.256s35.328 201.216 4.096 224.256h121.344c54.784-7.68 62.464-254.976 62.464-254.976s54.784 251.392 47.104 251.392H540.672h172.032c50.688-11.776 54.784-193.024 54.784-193.024s23.552 193.024 15.872 193.024h-74.24 93.696c140.288 3.584 147.968-189.952 66.048-406.016z m0 0" p-id="7359" fill="#ced4de"></path></svg>