<?xml version="1.0" standalone="no"?><!DOCTYPE svg PUBLIC "-//W3C//DTD SVG 1.1//EN" "http://www.w3.org/Graphics/SVG/1.1/DTD/svg11.dtd"><svg t="1569553716974" class="icon" viewBox="0 0 1024 1024" version="1.1" xmlns="http://www.w3.org/2000/svg" p-id="4562" xmlns:xlink="http://www.w3.org/1999/xlink" width="200" height="200"><defs><style type="text/css"></style></defs><path d="M871.424 151.552c-14.336-18.944-34.304-32.768-57.344-39.936L563.712 38.4c-16.896-5.12-34.304-7.168-51.712-7.168s-34.816 2.56-51.712 7.168L209.92 111.616c-23.04 6.656-43.008 20.48-57.344 39.936-14.336 19.456-22.016 41.984-22.016 66.048v404.48c0 23.552 7.68 46.592 21.504 65.536 27.648 37.888 83.968 111.104 147.456 175.616C385.536 950.784 455.168 993.28 512 993.28c56.832 0 126.464-42.496 212.48-130.048 64-65.024 119.808-138.24 147.456-175.616 13.824-18.944 21.504-41.472 21.504-65.536v-404.48c0-24.064-7.68-47.104-22.016-66.048z m-46.592 470.528c0 9.216-2.56 17.408-8.192 24.576-26.624 36.352-80.384 105.984-141.312 168.448-96.768 98.816-146.432 109.568-163.328 109.568-16.896 0-66.048-10.752-163.328-109.568-60.928-62.464-114.688-132.096-141.312-168.448-5.12-7.168-8.192-15.872-8.192-24.576v-404.48c0-18.432 12.288-34.816 29.696-39.936l250.368-73.728c10.752-3.072 21.504-4.608 32.256-4.608 10.752 0 21.504 1.536 32.256 4.608l250.368 73.728c17.408 5.12 29.696 21.504 29.696 39.936v404.48z" p-id="4563" fill="#ced4de"></path><path d="M606.208 589.312l-58.88-0.512V507.904c64-16.384 109.568-74.752 109.568-141.312 0-80.384-65.536-145.92-145.92-145.92S365.056 286.208 365.056 366.592c0 68.608 47.616 127.488 113.664 142.336v270.848c0 9.216 7.68 16.896 16.896 16.896h34.816c9.216 0 16.896-7.68 16.896-16.896l0.512-121.856h58.368c9.216 0 16.896-7.68 16.896-16.896v-34.816c0.512-9.216-7.168-16.896-16.896-16.896zM510.976 443.904c-42.496 0-77.312-34.816-77.312-77.312s34.816-77.312 77.312-77.312 77.312 34.816 77.312 77.312-34.816 77.312-77.312 77.312z" p-id="4564" fill="#ced4de"></path></svg>