<?xml version="1.0" standalone="no"?><!DOCTYPE svg PUBLIC "-//W3C//DTD SVG 1.1//EN" "http://www.w3.org/Graphics/SVG/1.1/DTD/svg11.dtd"><svg t="1569553727353" class="icon" viewBox="0 0 1024 1024" version="1.1" xmlns="http://www.w3.org/2000/svg" p-id="4863" xmlns:xlink="http://www.w3.org/1999/xlink" width="200" height="200"><defs><style type="text/css"></style></defs><path d="M615.936 993.28c-10.24 0-20.48-5.632-25.6-14.848-7.168-12.288-4.096-28.16 7.168-37.376 48.128-39.424 71.168-87.552 69.12-143.872-2.56-76.288-53.248-164.864-132.608-235.52-6.144 54.272-33.28 108.032-81.408 159.744-38.912 41.472-57.344 84.48-55.808 123.904 1.536 34.304 19.968 66.56 53.248 96.256 9.728 8.704 12.8 22.016 7.68 33.792-4.608 11.776-17.408 18.944-30.208 17.92-145.92-13.824-225.28-82.944-265.728-137.728-51.2-69.12-70.656-156.672-53.76-239.616 10.24-49.152 27.648-91.648 44.032-132.608 20.48-50.176 40.448-97.28 43.52-153.088 0.512-12.288 9.216-22.528 20.992-26.624 11.776-3.584 24.576 0.512 32.256 10.24 23.04 30.208 36.352 60.416 44.032 92.672 113.152-158.72 126.464-272.384 116.224-342.528-1.536-10.24 2.048-20.48 10.24-27.136 7.68-6.656 18.432-8.704 28.16-6.144 7.68 2.048 176.128 58.88 261.12 308.224 10.24-22.016 10.752-46.592 3.072-79.872-2.56-12.288 2.56-25.088 13.312-31.744 10.752-6.656 24.576-5.632 34.304 3.072 87.552 76.8 190.464 281.088 155.136 463.872-18.944 95.744-83.968 224.256-289.28 295.424-2.56 3.072-6.144 3.584-9.216 3.584zM236.544 427.008c-8.704 27.648-19.456 53.248-30.208 79.36-15.36 38.4-32.256 77.824-40.96 121.856-13.312 66.56 2.048 136.704 43.008 192 25.6 34.816 71.68 76.8 148.48 100.352-11.776-22.528-18.944-46.592-19.968-71.68-2.56-55.296 21.504-113.664 71.68-166.912 55.296-59.904 76.288-117.76 62.976-177.664-2.56-11.776 2.048-24.064 12.288-31.232 10.24-7.168 23.552-6.656 33.28 0.512 121.856 85.504 202.752 211.968 207.36 321.536 1.024 32.768-4.096 64.512-16.384 93.696 81.408-50.176 131.584-117.76 147.968-203.264 24.064-123.904-25.6-262.144-84.48-348.16-7.68 33.28-25.6 61.952-55.808 88.576-7.68 7.168-18.432 9.216-28.672 6.656-9.728-3.072-17.92-10.752-19.968-20.992-48.128-182.784-142.336-266.24-196.608-301.056-0.512 116.736-59.392 247.808-174.08 390.144-7.68 9.728-20.48 13.312-32.256 9.728-11.776-3.584-19.968-13.824-20.48-26.624-1.536-20.992-3.584-39.424-7.168-56.832z" p-id="4864" fill="#ced4de"></path></svg>