<?xml version="1.0" standalone="no"?><!DOCTYPE svg PUBLIC "-//W3C//DTD SVG 1.1//EN" "http://www.w3.org/Graphics/SVG/1.1/DTD/svg11.dtd"><svg t="1569553707746" class="icon" viewBox="0 0 1024 1024" version="1.1" xmlns="http://www.w3.org/2000/svg" p-id="4414" xmlns:xlink="http://www.w3.org/1999/xlink" width="200" height="200"><defs><style type="text/css"></style></defs><path d="M959.488 257.536c-18.432 0-33.792 14.848-33.792 33.792v529.92h-324.608c-34.304 0-66.56 14.336-89.6 39.936-23.04-25.088-55.296-39.936-89.6-39.936H97.792V291.328c-0.512-18.432-16.384-32.768-34.816-32.256-17.408 0.512-31.744 14.848-32.256 32.256v541.184c0 31.744 25.088 57.344 55.808 57.344h335.872c24.064 0 44.544 15.36 52.224 37.376 4.608 12.288 16.896 20.48 30.208 20.48h13.824c13.312 0 25.6-7.68 30.208-20.48 8.192-21.504 28.672-37.376 52.224-37.376H936.96c30.72 0 55.808-25.6 55.808-57.344V291.328c0.512-18.944-14.336-33.792-33.28-33.792zM225.792 145.408h196.608c30.72 0 55.808 20.992 55.808 47.616v485.888c-17.408-8.192-36.352-12.8-55.808-12.8H225.792V145.408zM476.16 771.072l2.048 24.064h67.072l2.048-24.064c6.656-20.992 28.672-35.84 53.76-35.84H865.28V522.24c-0.512-18.432-16.384-32.768-34.816-32.256-17.408 0.512-31.744 14.848-32.256 32.256v143.872h-196.608c-19.968 0-38.912 4.608-55.808 12.8V193.024c0-26.112 25.088-47.616 55.808-47.616h196.608v241.152c0 18.432 14.848 33.792 33.792 33.792s33.792-14.848 33.792-33.792V122.368c0-25.088-20.48-46.08-46.08-46.08h-218.112c-35.328 0-67.072 14.336-89.6 36.864-23.552-23.552-55.808-36.864-89.6-36.864H204.288c-25.088 0-46.08 20.48-46.08 46.08v612.864h264.192c25.088 0.512 47.616 14.848 53.76 35.84z" p-id="4415" fill="#ced4de"></path></svg>