<?xml version="1.0" standalone="no"?><!DOCTYPE svg PUBLIC "-//W3C//DTD SVG 1.1//EN" "http://www.w3.org/Graphics/SVG/1.1/DTD/svg11.dtd"><svg t="1569481691855" class="icon" viewBox="0 0 1024 1024" version="1.1" xmlns="http://www.w3.org/2000/svg" p-id="1499" xmlns:xlink="http://www.w3.org/1999/xlink" width="200" height="200"><defs><style type="text/css"></style></defs><path d="M512 993.28c-265.728 0-481.28-215.552-481.28-481.28S246.272 30.72 512 30.72s481.28 215.552 481.28 481.28-215.552 481.28-481.28 481.28z m45.056-736.768c0-25.088-19.968-45.056-45.056-45.056s-45.056 19.968-45.056 45.056v330.752c0 25.088 19.968 45.056 45.056 45.056s45.056-19.968 45.056-45.056V256.512z m-45.056 465.92c-25.088 0-45.056 19.968-45.056 45.056s19.968 45.056 45.056 45.056 45.056-19.968 45.056-45.056-19.968-45.056-45.056-45.056z" p-id="1500" fill="#d81e06"></path></svg>