<?xml version="1.0" standalone="no"?><!DOCTYPE svg PUBLIC "-//W3C//DTD SVG 1.1//EN" "http://www.w3.org/Graphics/SVG/1.1/DTD/svg11.dtd"><svg t="1569553670535" class="icon" viewBox="0 0 1024 1024" version="1.1" xmlns="http://www.w3.org/2000/svg" p-id="3819" xmlns:xlink="http://www.w3.org/1999/xlink" width="200" height="200"><defs><style type="text/css"></style></defs><path d="M498.176 30.72c-150.528 0-272.896 122.368-272.896 272.896 0 103.936 39.936 194.56 125.44 240.64C172.032 599.552 52.224 765.952 52.224 962.56c0 7.168 2.56 13.312 7.68 18.432s19.968 11.776 26.624 11.776c7.168 0 22.016-6.656 26.624-11.776 5.12-5.12 7.68-11.776 7.68-18.432 0-212.48 164.864-381.44 375.296-381.44 2.56 0.512 5.632 0 8.192-0.512 147.968-3.072 266.752-128.512 266.752-276.992 0.512-150.528-122.368-272.896-272.896-272.896z m-0.512 480.768c-121.856 0-204.288-82.432-204.288-204.288 0-121.856 82.432-202.24 204.288-202.24 121.856 0 204.288 80.384 204.288 202.24S619.52 511.488 497.664 511.488z" p-id="3820" fill="#ced4de"></path><path d="M586.24 679.936h342.528c23.552 0 43.008-15.872 43.008-35.84s-19.456-35.84-43.008-35.84H586.24c-23.552 0-43.008 16.384-43.008 35.84 0.512 19.456 19.456 35.84 43.008 35.84z m342.528 230.912H586.24c-23.552 0-43.008 16.384-43.008 35.84 0 19.968 18.944 35.84 43.008 35.84h342.528c23.552 0 43.008-16.384 43.008-35.84 0-19.968-19.456-35.84-43.008-35.84z m0-145.408H586.24c-23.552 0-43.008 16.384-43.008 35.84 0 19.968 18.944 35.84 43.008 35.84h342.528c23.552 0 43.008-16.384 43.008-35.84s-19.456-35.84-43.008-35.84z" p-id="3821" fill="#ced4de"></path></svg>