<?xml version="1.0" standalone="no"?><!DOCTYPE svg PUBLIC "-//W3C//DTD SVG 1.1//EN" "http://www.w3.org/Graphics/SVG/1.1/DTD/svg11.dtd"><svg t="1569553960187" class="icon" viewBox="0 0 1024 1024" version="1.1" xmlns="http://www.w3.org/2000/svg" p-id="8840" xmlns:xlink="http://www.w3.org/1999/xlink" width="200" height="200"><defs><style type="text/css"></style></defs><path d="M932.864 272.384l-49.152 49.152c-52.224 52.736-137.728 52.736-190.464 0-52.224-52.736-52.224-138.24 0-190.976l49.152-49.152c27.136-27.136 9.216-59.392-39.936-51.712-49.664 7.68-97.792 30.72-136.192 69.12-60.928 61.44-83.456 146.944-66.56 225.792l-412.672 414.72c-52.736 52.736-52.736 138.24 0 190.976 52.224 52.736 137.728 52.736 190.464 0l413.184-414.208c78.848 16.384 164.352-5.632 225.28-67.072 38.4-38.4 61.44-86.528 69.12-136.704 7.168-49.152-25.088-67.072-52.224-39.936z m-719.36 593.92c-17.408 17.408-46.08 17.408-63.488 0-17.408-17.408-17.408-46.08 0-63.488 17.408-17.408 46.08-17.408 63.488 0 17.92 17.408 17.92 46.08 0 63.488zM168.96 280.576l155.648 156.16 63.488-63.488-155.648-156.16-34.816-66.56-111.104-79.872L23.04 134.144 102.4 245.76l66.56 34.816z m520.192 330.752c-8.704-8.704-23.04-8.704-31.744 0L562.176 706.56c-8.704 8.704-8.704 23.04 0 31.744l224.256 225.28c34.816 35.328 91.648 35.328 126.976 0 34.816-34.816 34.816-92.16 0-127.488l-224.256-224.768z m0 0" p-id="8841" fill="#ced4de"></path></svg>