<?xml version="1.0" standalone="no"?><!DOCTYPE svg PUBLIC "-//W3C//DTD SVG 1.1//EN" "http://www.w3.org/Graphics/SVG/1.1/DTD/svg11.dtd"><svg t="1570598643810" class="icon" viewBox="0 0 1024 1024" version="1.1" xmlns="http://www.w3.org/2000/svg" p-id="2398" xmlns:xlink="http://www.w3.org/1999/xlink" width="200" height="200"><defs><style type="text/css"></style></defs><path d="M512 990.72c-4.096 0-8.704-1.024-12.288-3.072L47.616 749.568c-8.704-4.608-13.824-13.312-14.336-23.552V59.904C33.28 52.736 35.84 46.08 40.96 40.96s11.776-7.68 18.432-7.68c4.096 0 8.704 1.024 12.288 3.072l440.32 231.424 439.808-231.424c3.584-2.048 8.192-3.072 12.288-3.072 9.728 0 18.944 5.632 23.552 14.336 2.048 3.584 3.072 8.192 3.072 12.288v666.624c0 9.728-5.632 18.944-14.336 23.552L524.288 988.16c-3.584 1.536-8.192 2.56-12.288 2.56z m0-56.32l425.984-224.256V103.424l-413.696 217.6c-3.584 2.048-8.192 3.072-12.288 3.072-4.096 0-8.704-1.024-12.288-3.072L86.016 103.424v607.232l425.984 223.744z" p-id="2399" fill="#ced4de"></path><path d="M651.264 466.432c-15.36 0-27.648-12.288-27.648-27.648 0-10.24 5.632-19.968 14.848-24.576l215.04-113.152c4.096-2.048 8.704-3.072 12.8-3.072 10.24 0 19.968 5.632 24.576 14.848 3.584 6.656 4.096 14.336 2.048 21.504-2.048 7.168-7.168 12.8-13.824 16.384l-215.04 113.152c-3.584 1.536-8.192 2.56-12.8 2.56zM651.264 719.872c-15.36 0-27.648-12.288-27.648-27.648 0-10.24 5.632-19.968 14.848-24.576l215.04-113.152c4.096-2.048 8.704-3.072 12.8-3.072 10.24 0 19.968 5.632 24.576 14.848 7.168 13.824 2.048 30.72-11.776 37.888l-215.04 113.152c-3.584 1.536-8.192 2.56-12.8 2.56zM207.872 702.464c-15.36 0-27.648-12.288-27.648-27.648V269.312c0-15.36 12.288-27.648 27.648-27.648 15.36 0 27.648 12.288 27.648 27.648v404.992c0.512 15.872-12.288 28.16-27.648 28.16zM359.936 795.648c-15.36 0-27.648-12.288-27.648-27.648V362.496c0-15.36 12.288-27.648 27.648-27.648s27.648 12.288 27.648 27.648V768c0.512 15.36-12.288 27.648-27.648 27.648z" p-id="2400" fill="#ced4de"></path></svg>