<?xml version="1.0" standalone="no"?><!DOCTYPE svg PUBLIC "-//W3C//DTD SVG 1.1//EN" "http://www.w3.org/Graphics/SVG/1.1/DTD/svg11.dtd"><svg t="1569553589172" class="icon" viewBox="0 0 1024 1024" version="1.1" xmlns="http://www.w3.org/2000/svg" p-id="2740" xmlns:xlink="http://www.w3.org/1999/xlink" width="200" height="200"><defs><style type="text/css"></style></defs><path d="M99.328 547.328c0-9.728 4.096-18.432 10.752-25.088L626.176 40.96c13.312-12.8 34.816-12.288 47.616 1.024l206.336 206.336c13.312 13.312 13.312 35.328 0 48.64l-1.024 1.024L363.52 778.752c-6.144 6.144-14.848 9.216-23.552 9.216H133.632c-18.944 0-34.304-15.36-34.304-34.304v-206.336z m69.12 15.36v157.184h158.208l479.744-447.488-157.696-157.696-480.256 448zM30.72 960v-68.608h962.56v68.608H30.72z" p-id="2741" fill="#ced4de"></path><path d="M564.1472 140.31872l205.64992 184.0128-39.26016 43.8784-205.64992-184.0128z" p-id="2742" fill="#ced4de"></path></svg>