<?xml version="1.0" standalone="no"?><!DOCTYPE svg PUBLIC "-//W3C//DTD SVG 1.1//EN" "http://www.w3.org/Graphics/SVG/1.1/DTD/svg11.dtd"><svg t="1569553880020" class="icon" viewBox="0 0 1024 1024" version="1.1" xmlns="http://www.w3.org/2000/svg" p-id="7061" xmlns:xlink="http://www.w3.org/1999/xlink" width="200" height="200"><defs><style type="text/css"></style></defs><path d="M957.44 803.328c-18.432 35.328-40.448 44.544-53.248 47.104L528.896 977.408l-14.336-17.92c-25.6-31.744-104.448-117.76-163.328-138.752L116.224 739.84c-32.256-11.264-58.368-33.792-73.216-63.488-14.848-29.696-16.384-63.488-4.608-94.72s35.328-55.808 66.56-70.144c31.232-14.336 66.56-15.872 98.816-4.608l1.536 0.512 26.624 10.752c-4.096-9.728-8.704-19.456-13.824-28.672l-1.024-1.536-0.512-2.048-86.016-225.28-0.512-2.56c-13.312-67.072 32.256-132.096 102.4-144.896a135 135 0 0 1 43.008-0.512c26.624 75.776 139.776 352.768 139.776 352.768s53.76 8.192 48.128-46.592c-3.584-38.4-73.728-201.728-115.2-299.008 18.944-38.912 56.832-68.608 104.96-72.704 17.408-1.536 34.304 0.512 50.176 5.632 28.16 99.84 104.448 338.432 104.448 338.432s52.736 12.288 51.712-43.008c-0.512-33.792-46.08-171.52-79.36-271.872 20.992-18.944 49.664-30.72 78.848-30.72h1.024c31.232 0.512 61.952 17.92 89.088 50.688 1.024 1.536 2.048 3.072 3.072 4.096 16.896 116.736 45.568 290.816 45.568 290.816s50.688 19.456 57.344-35.328c3.072-25.6-10.24-112.64-24.576-198.656 7.68-2.048 14.848-4.608 23.552-4.608 26.624 0 64 12.288 92.16 69.632 15.872 32.768 27.648 76.288 34.816 129.536l12.288 89.088v130.56c0 109.056-11.776 186.368-35.84 231.936z" p-id="7062" fill="#ced4de"></path></svg>