<?xml version="1.0" standalone="no"?><!DOCTYPE svg PUBLIC "-//W3C//DTD SVG 1.1//EN" "http://www.w3.org/Graphics/SVG/1.1/DTD/svg11.dtd"><svg t="1569553648526" class="icon" viewBox="0 0 1024 1024" version="1.1" xmlns="http://www.w3.org/2000/svg" p-id="3336" xmlns:xlink="http://www.w3.org/1999/xlink" width="200" height="200"><defs><style type="text/css"></style></defs><path d="M915.968 993.28H117.76c-27.648 0-50.176-22.528-50.176-50.176v-778.24c0-27.648 22.528-50.176 50.176-50.176h178.688c20.48 0 36.864 16.384 36.864 36.864s-16.384 36.864-36.864 36.864H140.8v732.16h752.64v-732.16H747.52c-20.48 0-36.864-16.384-36.864-36.864s16.384-36.864 36.864-36.864h168.448c27.648 0 50.176 22.528 50.176 50.176v778.24c0 27.648-22.528 50.176-50.176 50.176z m0-805.376z" p-id="3337" fill="#ced4de"></path><path d="M310.784 267.776c-26.112 0-47.616-21.504-47.616-47.616V63.488c0-26.112 21.504-47.616 47.616-47.616h412.16c26.112 0 47.616 21.504 47.616 47.616v156.16c0 26.112-21.504 47.616-47.616 47.616H310.784z m20.992-68.608h370.688V83.968H331.264l0.512 115.2zM596.48 833.536c-8.192 0-16.896-3.584-22.528-10.752l-115.712-143.36c-10.24-12.288-8.192-30.72 4.608-40.448 12.288-10.24 30.72-8.192 40.448 4.608l115.712 143.36c10.24 12.288 8.192 30.72-4.608 40.448-5.12 3.584-11.776 6.144-17.92 6.144z" p-id="3338" fill="#ced4de"></path><path d="M604.16 824.832c-7.168 0-14.336-2.56-19.968-8.192-11.264-11.264-11.776-29.184-1.024-40.96l211.456-220.16c11.264-11.264 29.184-11.776 40.96-1.024 11.264 11.264 11.776 29.184 1.024 40.96l-211.456 220.16a28.3648 28.3648 0 0 1-20.992 9.216zM709.12 427.52h-512c-13.312 0-24.064-10.752-24.064-24.064v-10.24c0-13.312 10.752-24.064 24.064-24.064h512c13.312 0 24.064 10.752 24.064 24.064v10.24c0 13.312-10.752 24.064-24.064 24.064zM417.792 593.92H197.12c-13.312 0-24.064-10.752-24.064-24.064v-10.24c0-13.312 10.752-24.064 24.064-24.064h220.672c13.312 0 24.064 10.752 24.064 24.064v10.24c0 13.312-10.752 24.064-24.064 24.064z" p-id="3339" fill="#ced4de"></path></svg>