<svg t="1639634256142" class="icon" viewBox="0 0 1024 1024" version="1.1" xmlns="http://www.w3.org/2000/svg" p-id="5588" width="200" height="200"><path d="M499.08 813.25H393.51v-78.32h-75.4v62.65h45.25v-31.31h-15.1v15.65h-15.08V750.6h45.25v62.65h-75.42v-93.99h105.57v78.32H484v-62.65h-45.25v31.33h15.07V750.6h15.1v31.32h-45.25v-62.65h75.4l0.01 93.98z m211.16 0H604.67v-78.32h-75.42v62.65h45.25v-31.31h-15.08v15.65h-15.07V750.6h45.25v62.65h-75.42v-93.99h105.58v78.32h75.42v-62.65h-45.25v31.33H665V750.6h15.1v31.32h-45.25v-62.65h75.4v93.98h-0.01zM770.59 770.25l2.18-3.98h-2.18z" fill="#AAAAAA" p-id="5589"></path><path d="M423.68 781.92h45.25V750.6h-15.1v15.67h-15.07v-31.33H484v62.64h-75.42v-78.31H303.01v93.98h75.42V750.6h-45.25v31.32h15.08v-15.65h15.1v31.31h-45.25v-62.64h75.4v78.31h105.57v-93.98h-75.4zM634.84 781.92h45.25V750.6H665v15.67h-15.08v-31.33h45.25v62.64h-75.42v-78.31H514.17v93.98h75.42V750.6h-45.24v31.32h15.07v-15.65h15.08v31.31h-45.25v-62.64h75.42v78.31h105.57v-93.98h-75.4zM798.63 719.27h-73.29v93.98H785.3l6.74-12.68 8.7-15.4V750.6H755.51v31.32h15.08v-15.65h15.08v31.31h-45.25v-62.64h75.42v22.78l15.07-27.42v-11.03zM224.13 719.27h-11.62v48.53l7.77 14.12h37.48V750.6h-15.1v15.67h-15.07v-31.33h45.25v62.64H228.91l8.62 15.67h50.38v-93.98z" fill="#AAAAAA" p-id="5590"></path><path d="M514.83 397.12a9.99 9.99 0 0 1-4.4-1.02l-102.2-50.11-102.06 50.11a10.022 10.022 0 0 1-8.81 0l-113.59-55.69c-4.96-2.43-7.01-8.42-4.58-13.38 2.43-4.96 8.42-7.01 13.38-4.58l109.19 53.53 102.06-50.11c2.78-1.36 6.03-1.36 8.81 0l102.2 50.11 102.06-50.11c2.78-1.36 6.03-1.36 8.81 0l102.21 50.11 105.26-51.59c4.96-2.43 10.95-0.38 13.38 4.58 2.43 4.96 0.38 10.95-4.58 13.38L732.3 396.1a10 10 0 0 1-8.8 0l-102.21-50.11-102.05 50.11c-1.39 0.68-2.9 1.02-4.41 1.02z" fill="#222222" p-id="5591"></path><path d="M757.94 187.5c4-45.38 22.88-60.16 44.55-92.97-2.07-4.74-10.59-35.76-14.74-35.76H235.47c-4.14 0-12.87 30.81-14.94 35.76 21.68 32.81 40.62 47.59 44.62 92.97h492.79z" fill="#AAAAAA" p-id="5592"></path><path d="M656.56 979.7H366.53c-34.81 0-65.73-20.87-78.79-53.17l-0.04-0.1-144.49-248.7-0.27-0.7c-34.92-88.16-35.78-185.46-2.42-273.99 0.22-0.59 0.43-1.03 0.54-1.27 4.27-11.26 8.6-21.36 13.26-30.92l14.79-30.35c0.17-0.41 0.36-0.83 0.56-1.24l65.44-134.28c3.63-7.45 8.27-14.3 13.79-20.33l0.34-0.37-0.1-0.5c-0.28-1.4-0.43-2.89-0.43-4.39 0-25.79-11.27-50.42-30.91-67.58-4.94-4.26-7.79-10.56-7.79-17.24 0-27.69 22.53-50.22 50.22-50.22h502.88c27.69 0 50.22 22.53 50.22 50.22 0 6.47-2.78 12.71-7.64 17.1l-0.15 0.13c-19.62 17.07-30.89 41.68-30.92 67.51v0.1a24.07 24.07 0 0 1-0.46 4.34l-0.12 0.58 0.34 0.38a85.068 85.068 0 0 1 13.72 20.26l65.19 133.7c0.5 0.76 0.92 1.5 1.28 2.26l14.57 30.02c5.11 10.48 9.8 21.4 13.91 32.43 0.46 1.27 0.8 2.49 1.02 3.7l0.04 0.13c31.68 87.16 30.39 182.65-3.63 268.86l-0.62 1.56-144.64 249.42c-12.82 31.97-43.7 52.65-78.66 52.65zM161.25 668.98l144.49 248.69 0.56 1.42c9.96 24.64 33.61 40.6 60.22 40.6h290.03c26.75 0 50.34-15.75 60.11-40.12l0.58-1.43 0.35-0.61 144.24-248.65 0.07-0.17c32.23-81.65 33.45-172.11 3.43-254.69l-0.57-1.57-0.32-1.63c-0.03-0.18-0.08-0.34-0.14-0.52a347.26 347.26 0 0 0-13.13-30.6l-14.7-30.23-0.66-1.03-65.68-134.72a65.188 65.188 0 0 0-10.5-15.53l-0.64-0.7H264.25l-0.6 0.66c-4.23 4.62-7.78 9.86-10.57 15.58L187.6 348.11l0.01-0.02-0.5 1.17-14.82 30.36c-4.39 9.02-8.49 18.58-12.52 29.23l-0.59 1.4c-31.47 83.59-30.73 175.43 2.07 258.73zM268.69 177.5h485.95c0.54-30.9 14.2-60.22 37.67-80.68 0.64-0.6 1.02-1.43 1.02-2.24 0-16.66-13.56-30.22-30.22-30.22H260.23c-16.66 0-30.22 13.56-30.22 30.22 0 0.88 0.32 1.64 0.91 2.14 23.55 20.57 37.23 49.91 37.77 80.78z" fill="#222222" p-id="5593"></path></svg>