<?xml version="1.0" standalone="no"?><!DOCTYPE svg PUBLIC "-//W3C//DTD SVG 1.1//EN" "http://www.w3.org/Graphics/SVG/1.1/DTD/svg11.dtd"><svg t="1569553775760" class="icon" viewBox="0 0 1024 1024" version="1.1" xmlns="http://www.w3.org/2000/svg" p-id="5907" xmlns:xlink="http://www.w3.org/1999/xlink" width="200" height="200"><defs><style type="text/css"></style></defs><path d="M71.168 964.608c-19.456 0-35.328-15.872-35.328-35.328s15.872-35.328 35.328-35.328H92.16V135.168c0-41.472 33.792-75.776 75.776-75.776h422.4c41.472 0 75.776 33.792 75.776 75.776v758.784h45.056V372.736c0-19.456 15.872-35.328 35.328-35.328h125.44c41.472 0 75.776 33.792 75.776 75.776v480.768h6.144c19.456 0 35.328 15.872 35.328 35.328s-15.872 35.328-35.328 35.328H71.168z m709.632-70.656h95.232V408.064h-95.232v485.888z m-618.496 0h432.64V130.048H162.304v763.904z" p-id="5908" fill="#ced4de"></path><path d="M278.528 737.792c-17.92 0-32.256-14.336-32.256-32.256s14.336-32.256 32.256-32.256h218.624c17.92 0 32.256 14.336 32.256 32.256s-14.336 32.256-32.256 32.256H278.528z m0-205.824c-17.92 0-32.256-14.336-32.256-32.256s14.336-32.256 32.256-32.256h218.624c17.92 0 32.256 14.336 32.256 32.256s-14.336 32.256-32.256 32.256H278.528z m0-205.824c-17.92 0-32.256-14.336-32.256-32.256s14.336-32.256 32.256-32.256h218.624c17.92 0 32.256 14.336 32.256 32.256s-14.336 32.256-32.256 32.256H278.528z" p-id="5909" fill="#ced4de"></path></svg>