<?xml version="1.0" standalone="no"?><!DOCTYPE svg PUBLIC "-//W3C//DTD SVG 1.1//EN" "http://www.w3.org/Graphics/SVG/1.1/DTD/svg11.dtd"><svg t="1569553836893" class="icon" viewBox="0 0 1024 1024" version="1.1" xmlns="http://www.w3.org/2000/svg" p-id="6502" xmlns:xlink="http://www.w3.org/1999/xlink" width="200" height="200"><defs><style type="text/css"></style></defs><path d="M712.704 603.136V437.76c0-69.632-307.2 22.528-360.96 247.808 0 0-71.168 82.944-80.384 0 0 0 102.912-454.144 441.344-454.144V107.52s39.936-58.368 120.32 41.472L993.28 313.856l-280.576 289.28zM151.04 437.76c-22.528 0.512-40.448 18.944-39.936 41.472v330.24c0 23.04 17.92 41.472 39.936 41.472h681.984c22.528-0.512 40.448-18.944 39.936-41.472V768c0-23.04 17.92-41.472 39.936-41.472s39.936 18.432 39.936 41.472v82.432c0 45.568-35.84 82.432-80.384 82.432H111.104C66.56 932.864 30.72 896 30.72 850.432V437.76c0-45.568 35.84-82.432 80.384-82.432h39.936c22.016 0 39.936 18.432 39.936 41.472 0.512 22.528-17.408 40.96-39.936 40.96z" p-id="6503" fill="#ced4de"></path></svg>