<?xml version="1.0" standalone="no"?><!DOCTYPE svg PUBLIC "-//W3C//DTD SVG 1.1//EN" "http://www.w3.org/Graphics/SVG/1.1/DTD/svg11.dtd"><svg t="1569553759254" class="icon" viewBox="0 0 1024 1024" version="1.1" xmlns="http://www.w3.org/2000/svg" p-id="5458" xmlns:xlink="http://www.w3.org/1999/xlink" width="200" height="200"><defs><style type="text/css"></style></defs><path d="M964.096 290.304c-2.56-4.608-6.144-8.192-10.752-10.24L527.36 34.304c-9.216-5.12-20.992-5.12-29.696 1.024L70.144 280.576c-13.312 7.68-18.432 25.088-10.24 38.4 1.536 3.072 4.096 5.632 6.656 7.68v0.512l431.104 247.296c4.096 2.56 9.216 3.584 14.336 3.584 5.12 0 10.24-1.536 14.336-4.096l428.032-245.248c13.312-7.68 17.92-25.088 9.728-38.4zM511.488 496.128L181.76 304.64l331.264-192 329.216 192-330.752 191.488z" p-id="5459" fill="#ced4de"></path><path d="M964.096 498.176c-2.56-4.608-6.144-8.192-10.752-10.24l-67.584-39.424-76.8 44.032L842.24 512 511.488 704 181.76 512.512l33.28-19.456-76.8-44.032-68.096 38.912c-13.312 7.68-18.432 25.088-10.24 38.4 1.536 3.072 4.096 5.632 6.656 7.68v0.512l431.104 247.296c4.096 2.56 9.216 3.584 14.336 3.584 5.12 0 10.24-1.536 14.336-4.096l428.032-245.248c13.312-7.168 17.92-24.576 9.728-37.888z" p-id="5460" fill="#ced4de"></path><path d="M953.856 695.296l-67.584-38.912-76.8 44.032 33.28 19.456L511.488 911.36 181.76 719.872l33.28-19.456-76.8-44.032-68.096 38.912c-13.312 7.68-18.432 25.088-10.24 38.4 1.536 3.072 4.096 5.632 6.656 7.68v0.512l431.104 247.296c4.096 2.56 9.216 3.584 14.336 3.584 5.12 0 10.24-1.536 14.336-4.096l428.032-245.248c13.312-7.68 17.92-25.088 10.24-38.4-3.072-3.584-6.656-7.168-10.752-9.728z" p-id="5461" fill="#ced4de"></path></svg>