<?xml version="1.0" standalone="no"?><!DOCTYPE svg PUBLIC "-//W3C//DTD SVG 1.1//EN" "http://www.w3.org/Graphics/SVG/1.1/DTD/svg11.dtd"><svg t="1569553632859" class="icon" viewBox="0 0 1024 1024" version="1.1" xmlns="http://www.w3.org/2000/svg" p-id="2889" xmlns:xlink="http://www.w3.org/1999/xlink" width="200" height="200"><defs><style type="text/css"></style></defs><path d="M905.728 424.448C905.728 205.824 730.624 30.72 512 30.72S118.272 205.824 118.272 424.448c0 161.792 214.528 402.432 314.88 507.392H314.88v61.44h393.728v-61.44h-122.368c104.96-104.96 319.488-345.6 319.488-507.392z m-717.312 0c0-179.2 144.384-323.584 323.584-323.584s323.584 144.384 323.584 323.584c0 139.776-214.528 363.008-323.584 481.28-109.568-118.272-323.584-340.992-323.584-481.28z" p-id="2890" fill="#ced4de"></path><path d="M516.608 200.192c-102.4 0-186.368 83.968-186.368 186.368s83.968 186.368 186.368 186.368 186.368-83.968 186.368-186.368-83.968-186.368-186.368-186.368z m0 297.984c-60.416 0-111.616-51.2-111.616-111.616s51.2-111.616 111.616-111.616 111.616 51.2 111.616 111.616-51.2 111.616-111.616 111.616z" p-id="2891" fill="#ced4de"></path></svg>