<?xml version="1.0" standalone="no"?><!DOCTYPE svg PUBLIC "-//W3C//DTD SVG 1.1//EN" "http://www.w3.org/Graphics/SVG/1.1/DTD/svg11.dtd"><svg t="1569553925711" class="icon" viewBox="0 0 1024 1024" version="1.1" xmlns="http://www.w3.org/2000/svg" p-id="7950" xmlns:xlink="http://www.w3.org/1999/xlink" width="200" height="200"><defs><style type="text/css"></style></defs><path d="M480.256 993.28c-54.784 0-108.544-9.728-159.232-29.184-53.76-20.48-102.912-51.712-143.872-91.648C96.256 794.624 51.2 686.08 52.736 573.952c0.512-54.784 12.288-109.056 33.792-159.744 23.04-53.248 55.808-100.864 97.28-140.8 83.456-80.384 194.56-125.952 310.272-127.488 56.832-0.512 112.128 9.216 164.352 29.184 53.76 20.48 102.912 51.712 143.872 91.648 83.968 81.408 128 189.44 124.928 304.128-1.536 54.784-13.824 108.032-36.352 158.208-22.528 51.2-54.784 97.792-95.232 136.704-83.456 80.384-194.56 125.952-310.272 127.488h-5.12z m19.456-784.384h-4.608c-98.816 0.512-194.048 39.936-265.216 108.544C158.72 386.56 118.784 478.208 117.76 574.464c-1.536 95.744 36.864 187.392 105.984 253.44 68.608 66.048 159.744 102.4 257.024 102.4h4.608c99.328-1.024 194.048-39.936 265.216-109.056 34.304-33.28 62.464-73.216 81.408-116.736 18.944-42.496 29.696-88.576 30.72-135.168 3.072-97.792-34.816-189.44-105.984-258.048-68.096-66.56-159.232-102.4-257.024-102.4zM278.528 30.72H701.44v62.976H278.528V30.72z" p-id="7951" fill="#ced4de"></path><path d="M512 164.864H446.464c0-33.792 0-38.4 0.512-43.52 0-4.096 0.512-8.704 0.512-40.96h65.536c0 33.792-0.512 38.4-0.512 43.52-0.512 4.096-0.512 8.704-0.512 40.96z m399.36 128.512c-14.336-29.696-32.768-56.832-55.296-80.896-33.28-35.84-73.728-64.512-118.784-83.968l28.16-53.76c53.248 23.04 100.864 56.832 140.288 99.328 26.624 28.672 48.64 60.928 65.536 95.744L911.36 293.376zM442.368 730.624l-22.528-20.992c-25.088-23.04-49.664-46.592-74.24-70.656-24.576-23.552-47.616-45.568-74.24-70.656l44.032-49.152c27.648 25.088 51.2 47.616 75.776 71.68 15.872 15.36 32.256 31.232 50.688 48.64 96.768-92.16 193.536-185.344 262.656-259.584l48.128 45.568c-75.776 80.896-182.784 183.808-287.744 283.136l-22.528 22.016z" p-id="7952" fill="#ced4de"></path></svg>