<?xml version="1.0" standalone="no"?><!DOCTYPE svg PUBLIC "-//W3C//DTD SVG 1.1//EN" "http://www.w3.org/Graphics/SVG/1.1/DTD/svg11.dtd"><svg t="1569553846661" class="icon" viewBox="0 0 1024 1024" version="1.1" xmlns="http://www.w3.org/2000/svg" p-id="6798" xmlns:xlink="http://www.w3.org/1999/xlink" width="200" height="200"><defs><style type="text/css"></style></defs><path d="M978.432 910.336l-166.4-166.912c151.552-189.44 120.832-465.408-68.608-616.96-189.44-151.04-465.408-120.32-616.448 69.12-151.552 189.44-120.832 465.408 68.608 616.96 160.256 128.512 388.608 128 548.352-0.512l166.4 166.4c18.432 19.456 48.64 19.968 68.096 2.048 19.456-18.432 19.968-48.64 2.048-68.096l-2.048-2.048zM128 470.528c0-188.928 153.088-342.016 342.016-342.016S811.52 281.6 811.52 470.528 658.432 812.544 470.016 812.544 128 658.944 128 470.528z" p-id="6799" fill="#ced4de"></path><path d="M628.224 428.032H512V311.808c0-24.064-18.944-43.52-41.984-43.52-23.04 0-41.984 19.456-41.984 43.52v116.224H311.808c-23.552-0.512-43.008 18.432-43.52 42.496 0 23.552 19.456 41.984 43.52 41.984h116.224v116.224c0 24.064 18.944 43.52 41.984 43.52 23.04 0 41.984-19.456 41.984-43.52V512.512h116.224c23.552 0.512 42.496-17.92 43.52-40.96 0.512-23.552-17.92-42.496-40.96-43.52h-2.56z" p-id="6800" fill="#ced4de"></path></svg>