<?xml version="1.0" standalone="no"?><!DOCTYPE svg PUBLIC "-//W3C//DTD SVG 1.1//EN" "http://www.w3.org/Graphics/SVG/1.1/DTD/svg11.dtd"><svg t="1569553754599" class="icon" viewBox="0 0 1024 1024" version="1.1" xmlns="http://www.w3.org/2000/svg" p-id="5307" xmlns:xlink="http://www.w3.org/1999/xlink" width="200" height="200"><defs><style type="text/css"></style></defs><path d="M501.248 594.944c-151.552 0-274.432-122.88-274.432-274.432S350.208 46.08 501.248 46.08s274.432 122.88 274.432 274.432-122.88 274.432-274.432 274.432z m0-483.328c-115.2 0-208.896 93.696-208.896 208.896s93.696 208.896 208.896 208.896 208.896-93.696 208.896-208.896-93.696-208.896-208.896-208.896z" p-id="5308" fill="#ced4de"></path><path d="M501.248 589.312c-147.968 0-268.8-120.32-268.8-268.8S353.28 52.224 501.248 52.224s268.8 120.32 268.8 268.8-120.832 268.288-268.8 268.288z m0-483.328c-118.272 0-215.04 96.256-215.04 215.04s96.256 215.04 215.04 215.04 215.04-96.256 215.04-215.04-96.256-215.04-215.04-215.04z" p-id="5309" fill="#ced4de"></path><path d="M954.88 916.48c-57.344-201.728-243.712-343.04-453.12-343.04s-396.288 140.8-453.12 343.04c-6.144 22.016-2.048 45.056 11.776 63.488 13.824 18.432 34.816 28.672 57.856 28.672h766.464c23.04 0 44.032-10.752 57.856-28.672 13.824-18.432 18.432-41.472 12.288-63.488zM117.76 936.448c48.128-171.008 206.336-290.304 383.488-290.304s335.36 119.296 383.488 290.304H117.76zM501.248 487.424c-52.736 0-101.888-24.576-133.632-66.56-5.12-7.168-7.68-15.36-6.144-24.064 1.024-8.704 5.632-16.384 12.8-21.504 5.632-4.096 12.288-6.656 19.456-6.656 10.24 0 19.968 4.608 26.112 13.312 19.456 25.6 49.152 40.448 81.408 40.448 32.256 0 61.952-14.848 81.408-40.448 6.144-8.192 15.872-12.8 26.112-12.8 7.168 0 13.824 2.048 19.456 6.656 14.336 10.752 17.408 31.232 6.656 45.568-31.744 41.984-80.384 66.048-133.632 66.048z" p-id="5310" fill="#ced4de"></path><path d="M501.248 481.792c-51.2 0-98.304-23.552-129.024-64.512-8.704-11.776-6.656-28.672 5.12-37.376 11.776-8.704 28.672-6.656 37.376 5.12 20.48 27.136 51.712 43.008 86.016 43.008 34.304 0 65.536-15.872 86.016-43.008 8.704-11.776 25.6-14.336 37.376-5.12 11.776 8.704 14.336 25.6 5.12 37.376-29.696 40.96-76.8 64.512-128 64.512z" p-id="5311" fill="#ced4de"></path></svg>