<?xml version="1.0" standalone="no"?><!DOCTYPE svg PUBLIC "-//W3C//DTD SVG 1.1//EN" "http://www.w3.org/Graphics/SVG/1.1/DTD/svg11.dtd"><svg t="1569553842331" class="icon" viewBox="0 0 1024 1024" version="1.1" xmlns="http://www.w3.org/2000/svg" p-id="6650" xmlns:xlink="http://www.w3.org/1999/xlink" width="200" height="200"><defs><style type="text/css"></style></defs><path d="M817.664 555.52l-222.72 382.976-1.536 1.024c-13.312 31.744-44.544 53.76-81.408 53.76-36.864 0-68.096-22.016-81.408-53.76l-1.536-1.024-222.72-382.976c-97.28-167.424-39.424-381.44 129.024-478.208 168.96-96.768 384.512-39.424 482.304 128 65.536 112.64 60.928 245.76 0 350.208zM512 249.344c-73.216 0-132.608 58.88-132.608 131.072 0 72.704 59.392 131.072 132.608 131.072s132.608-58.88 132.608-131.072c0-72.192-59.392-131.072-132.608-131.072z" p-id="6651" fill="#ced4de"></path></svg>