<?xml version="1.0" standalone="no"?><!DOCTYPE svg PUBLIC "-//W3C//DTD SVG 1.1//EN" "http://www.w3.org/Graphics/SVG/1.1/DTD/svg11.dtd"><svg t="1570598633909" class="icon" viewBox="0 0 1024 1024" version="1.1" xmlns="http://www.w3.org/2000/svg" p-id="2254" xmlns:xlink="http://www.w3.org/1999/xlink" width="200" height="200"><defs><style type="text/css"></style></defs><path d="M878.592 114.176H147.456C87.04 114.176 37.376 163.84 37.376 224.256v649.728c0 60.416 49.664 110.08 110.08 110.08h731.136c60.416 0 110.08-49.152 110.08-110.08V224.256c0-60.416-49.664-110.08-110.08-110.08z m44.544 759.808c0 24.576-19.968 44.544-44.544 44.544H147.456c-24.576 0-44.544-19.968-44.544-44.544V224.256c0-24.576 19.968-44.544 44.544-44.544h731.136c24.576 0 44.544 19.968 44.544 44.544v649.728z" p-id="2255" fill="#ced4de"></path><path d="M312.32 266.752c-17.92 0-32.768-14.848-32.768-32.768V54.272c0-17.92 14.848-32.768 32.768-32.768s32.768 14.848 32.768 32.768v179.712c0 17.92-14.848 32.768-32.768 32.768zM713.728 266.752c-17.92 0-32.768-14.848-32.768-32.768V54.272c0-17.92 14.848-32.768 32.768-32.768 17.92 0 32.768 14.848 32.768 32.768v179.712c0 17.92-14.848 32.768-32.768 32.768zM791.552 544.768h-277.504c-17.92 0-32.768-14.848-32.768-32.768s14.848-32.768 32.768-32.768h277.504c17.92 0 32.768 14.848 32.768 32.768s-14.848 32.768-32.768 32.768zM791.552 741.888H299.008c-17.92 0-32.768-14.848-32.768-32.768 0-17.92 14.848-32.768 32.768-32.768h493.056c17.92 0 32.768 14.848 32.768 32.768-0.512 18.432-15.36 32.768-33.28 32.768z" p-id="2256" fill="#ced4de"></path></svg>