<?xml version="1.0" standalone="no"?><!DOCTYPE svg PUBLIC "-//W3C//DTD SVG 1.1//EN" "http://www.w3.org/Graphics/SVG/1.1/DTD/svg11.dtd"><svg t="1569569775031" class="icon" viewBox="0 0 1024 1024" version="1.1" xmlns="http://www.w3.org/2000/svg" p-id="3033" xmlns:xlink="http://www.w3.org/1999/xlink" width="200" height="200"><defs><style type="text/css"></style></defs><path d="M305.152 902.656H107.52V121.344h197.632c21.504 0 39.424-17.408 39.424-39.424 0-20.992-18.432-39.424-39.424-39.424H69.632c-21.504 0.512-38.912 17.92-38.912 39.424v860.16c0 20.992 18.432 39.424 39.424 39.424h235.52c20.992 0 39.424-18.432 39.424-39.424-0.512-20.992-18.944-39.424-39.936-39.424z" p-id="3034" fill="#ced4de"></path><path d="M983.552 488.448l-314.88-321.536c-8.192-8.704-17.408-10.24-23.552-10.24-16.896 0-34.304 13.312-34.304 34.816v75.264c0 43.008-33.792 77.312-77.312 77.312H276.48c-19.456 0-34.304 14.848-34.304 34.304v267.264c0 19.456 14.848 34.304 34.304 34.304h257.024c43.008 0 77.312 33.792 77.312 77.312v75.264c0 21.504 17.92 33.792 35.328 33.792 6.144 0 15.36-1.536 23.04-9.728L983.552 537.6c12.8-14.848 13.312-35.84 0-49.152z" p-id="3035" fill="#ced4de"></path></svg>