<?xml version="1.0" standalone="no"?><!DOCTYPE svg PUBLIC "-//W3C//DTD SVG 1.1//EN" "http://www.w3.org/Graphics/SVG/1.1/DTD/svg11.dtd"><svg t="1569553637866" class="icon" viewBox="0 0 1024 1024" version="1.1" xmlns="http://www.w3.org/2000/svg" p-id="3038" xmlns:xlink="http://www.w3.org/1999/xlink" width="200" height="200"><defs><style type="text/css"></style></defs><path d="M55.808 585.216c-8.192 0-15.872-3.072-22.016-8.704-12.288-11.776-12.8-31.744-1.024-44.544l445.952-464.384c6.656-7.168 15.872-10.752 25.6-10.752s18.944 4.096 25.6 10.752l447.488 464.384c5.632 6.144 9.216 14.336 8.704 22.528 0 8.192-3.584 15.872-9.728 22.016-5.632 5.632-13.824 8.704-22.016 8.704-8.704 0-16.896-3.584-22.528-9.728L504.832 131.584l-426.496 443.904c-5.632 6.144-13.824 9.728-22.528 9.728z" p-id="3039" fill="#ced4de"></path><path d="M145.408 979.456v-382.464c0-17.408 14.336-31.232 31.232-31.232 17.408 0 31.232 14.336 31.232 31.232V916.48H803.84v-319.488c0-17.408 14.336-31.232 31.232-31.232 17.408 0 31.232 14.336 31.232 31.232v382.464H145.408z" p-id="3040" fill="#ced4de"></path><path d="M504.832 836.096h-4.096c-3.584-0.512-8.704-1.024-13.824-4.096-46.08-27.648-110.08-98.816-128.512-119.808l-1.024-1.024c-40.448-48.128-58.368-95.232-52.224-140.288 7.168-53.76 46.08-83.968 50.688-87.04l0.512-0.512c22.016-15.36 45.056-22.528 68.096-22.528 19.456 0 38.912 5.632 57.344 16.384 8.192 4.608 15.872 10.24 23.552 16.896 7.68-6.656 15.36-12.288 23.552-16.896 18.432-10.752 37.888-16.384 57.344-16.384 23.04 0 45.568 7.68 67.584 22.528l0.512 0.512c4.096 3.072 43.52 32.768 50.688 87.04 5.632 45.056-11.776 91.648-52.224 139.776-7.68 9.216-78.848 91.136-129.536 121.344-5.12 2.56-9.728 3.584-13.824 4.096h-4.608z m-80.384-317.44c-11.264 0-23.04 4.096-35.328 12.288 0 0-23.04 17.408-27.136 48.128-3.584 27.648 9.728 59.392 38.912 94.72 0.512 0.512 59.904 69.632 103.424 101.376 43.52-31.232 102.912-100.352 103.424-101.376 29.184-34.816 42.496-66.56 38.912-94.72-3.584-30.208-27.136-48.128-27.136-48.128-11.776-8.192-23.552-12.288-34.816-12.288-9.216 0-17.92 2.56-27.648 7.68-16.384 9.216-27.136 23.04-29.184 25.6-5.632 7.68-14.336 12.288-23.552 12.288h-2.048c-8.704-0.512-16.896-5.12-22.016-12.288-0.512-0.512-11.776-15.872-29.184-25.6-8.704-5.12-17.92-7.68-26.624-7.68z" p-id="3041" fill="#ced4de"></path></svg>