<?xml version="1.0" standalone="no"?><!DOCTYPE svg PUBLIC "-//W3C//DTD SVG 1.1//EN" "http://www.w3.org/Graphics/SVG/1.1/DTD/svg11.dtd"><svg t="1569553675990" class="icon" viewBox="0 0 1024 1024" version="1.1" xmlns="http://www.w3.org/2000/svg" p-id="3968" xmlns:xlink="http://www.w3.org/1999/xlink" width="200" height="200"><defs><style type="text/css"></style></defs><path d="M301.568 471.04h421.888c19.456 0 34.816 15.36 34.816 34.304s-15.36 34.304-34.816 34.304H301.568c-18.944 0-34.816-15.36-34.816-34.304s15.36-34.304 34.816-34.304z m0 137.728h421.888c19.456 0 34.816 15.36 34.816 34.304s-15.36 34.304-34.816 34.304H301.568c-18.944 0-34.816-15.36-34.816-34.304s15.36-34.304 34.816-34.304z m0 137.216h421.888c19.456 0 34.816 15.36 34.816 34.304s-15.36 34.304-34.816 34.304H301.568c-18.944 0-34.816-15.36-34.816-34.304s15.36-34.304 34.816-34.304zM852.48 30.72c41.984 0 76.288 33.792 76.288 75.264v812.032c0 41.472-34.304 75.264-76.288 75.264H171.008c-41.984 0-75.776-33.792-75.776-75.264V105.984c0-41.472 33.792-75.264 75.776-75.264H852.48zM526.336 99.328v181.248l90.112-51.2 90.112 51.2V99.328H526.336z m332.8 780.288V144.384c0-24.576-20.48-45.056-45.568-45.056H785.92v224.256c0 23.552-18.432 43.008-41.984 44.544h-13.312l-1.024-0.512h-1.024l-1.024-0.512-1.024-0.512h-1.024l-1.536-0.512h-0.512l-1.536-0.512-0.512-0.512c-0.512 0-1.024-0.512-1.536-0.512l-0.512-0.512-1.536-0.512h-0.512l-96.256-54.272-95.744 54.272c-0.512 0.512-1.024 0.512-2.048 1.024-0.512 0.512-1.536 0.512-2.048 1.024-0.512 0-1.024 0.512-2.048 0.512-0.512 0-1.024 0.512-2.048 0.512h-0.512c-0.512 0-1.024 0.512-1.536 0.512h-0.512c-0.512 0-1.024 0-1.536 0.512H512l-1.024 0.512h-3.072l-1.024 0.512h-9.216c-7.168-1.024-14.336-3.584-20.48-7.68-0.512-0.512-1.024-0.512-1.536-1.024l-0.512-0.512-1.024-1.024c-0.512 0-0.512-0.512-1.024-0.512 0 0-0.512-0.512-1.024-0.512l-1.024-1.024-1.024-0.512c0-0.512-0.512-0.512-0.512-0.512l-1.024-1.024-0.512-1.024c-0.512-0.512-0.512-1.024-1.024-1.024l-0.512-0.512c-0.512-0.512-1.024-1.024-1.024-1.536-2.56-3.584-5.12-7.68-6.144-12.288 0-0.512-0.512-1.024-0.512-2.048 0-0.512-0.512-1.024-0.512-1.536v-0.512c0-0.512-0.512-1.024-0.512-1.536V99.328H210.432c-25.088 0-45.568 19.968-45.568 45.056v735.232c0 24.576 20.48 45.056 45.568 45.056h603.136c25.088 0 45.568-19.968 45.568-45.056z m0 0" p-id="3969" fill="#ced4de"></path></svg>