<?xml version="1.0" standalone="no"?><!DOCTYPE svg PUBLIC "-//W3C//DTD SVG 1.1//EN" "http://www.w3.org/Graphics/SVG/1.1/DTD/svg11.dtd"><svg t="1569553886303" class="icon" viewBox="0 0 1024 1024" version="1.1" xmlns="http://www.w3.org/2000/svg" p-id="7209" xmlns:xlink="http://www.w3.org/1999/xlink" width="200" height="200"><defs><style type="text/css"></style></defs><path d="M630.272 428.032H311.808c-23.552-0.512-43.008 18.432-43.52 42.496 0 22.528 17.92 39.936 40.448 41.472H599.04v0.512h28.672c23.552 0.512 42.496-17.92 43.52-40.96 1.024-23.552-17.408-43.008-40.96-43.52z" p-id="7210" fill="#ced4de"></path><path d="M979.968 912.384c-0.512-0.512-1.024-1.024-1.536-2.048l-166.4-166.912c151.04-189.44 120.832-465.408-68.608-616.96-189.44-151.04-465.408-120.32-616.448 69.12-151.552 189.44-120.832 465.408 68.608 616.96 160.256 128.512 388.608 128 548.352-0.512l166.4 166.4c18.432 19.456 48.64 19.968 68.096 2.048 18.944-18.432 19.968-49.152 1.536-68.096zM470.016 812.032c-188.928 0-341.504-153.088-341.504-342.016C128 281.6 281.088 128.512 470.016 128.512c188.928 0 341.504 153.088 341.504 342.016 0 188.416-153.088 341.504-341.504 341.504z" p-id="7211" fill="#ced4de"></path></svg>