<?xml version="1.0" standalone="no"?><!DOCTYPE svg PUBLIC "-//W3C//DTD SVG 1.1//EN" "http://www.w3.org/Graphics/SVG/1.1/DTD/svg11.dtd"><svg t="1569553684511" class="icon" viewBox="0 0 1024 1024" version="1.1" xmlns="http://www.w3.org/2000/svg" p-id="4116" xmlns:xlink="http://www.w3.org/1999/xlink" width="200" height="200"><defs><style type="text/css"></style></defs><path d="M134.144 788.992c-51.2 0-93.184-41.984-93.184-93.184V151.552c0-51.2 41.984-93.184 93.184-93.184h755.712c51.2 0 93.184 41.984 93.184 93.184V696.32c0 51.2-41.984 93.184-93.184 93.184H134.144z m-5.632-663.04c-11.264 0-20.48 9.216-20.48 20.48v553.984c0 11.264 9.216 20.48 20.48 20.48h766.464c11.264 0 20.48-9.216 20.48-20.48V146.432c0-11.264-9.216-20.48-20.48-20.48H128.512z m164.864 840.192c-23.552 0-33.792-10.24-33.792-33.792 0-24.064 10.24-34.304 33.792-34.304h437.248c23.552 0 33.792 10.24 33.792 33.792 0 24.064-10.24 34.304-33.792 34.304H293.376z" p-id="4117" fill="#ced4de"></path><path d="M242.688 612.352c-18.944 0-26.624-7.68-26.624-26.624V349.696c0-18.944 7.68-26.624 26.624-26.624h13.824c18.944 0 26.624 7.68 26.624 26.624v236.032c0 18.944-7.68 26.624-26.624 26.624h-13.824z m181.76 0c-23.552 0-33.28-10.24-33.28-33.28v-89.6c0-23.552 10.24-33.28 33.28-33.28 23.552 0 33.28 10.24 33.28 33.28v89.088c0.512 23.552-9.728 33.792-33.28 33.792z m175.104 0c-23.552 0-33.28-10.24-33.28-33.28V268.288c0-23.552 10.24-33.28 33.28-33.28 23.552 0 33.28 10.24 33.28 33.28V578.56c0 23.552-9.728 33.792-33.28 33.792z m175.104 0c-23.552 0-33.28-10.24-33.28-33.28V445.44c0-23.552 10.24-33.28 33.28-33.28 23.552 0 33.28 10.24 33.28 33.28v133.12c0 23.552-9.728 33.792-33.28 33.792z" p-id="4118" fill="#ced4de"></path></svg>