<?xml version="1.0" standalone="no"?><!DOCTYPE svg PUBLIC "-//W3C//DTD SVG 1.1//EN" "http://www.w3.org/Graphics/SVG/1.1/DTD/svg11.dtd"><svg t="1569553941747" class="icon" viewBox="0 0 1024 1024" version="1.1" xmlns="http://www.w3.org/2000/svg" p-id="8395" xmlns:xlink="http://www.w3.org/1999/xlink" width="200" height="200"><defs><style type="text/css"></style></defs><path d="M849.92 32.768H167.936c-37.888 0-73.728 14.848-100.352 41.984-25.088 26.624-39.424 61.44-39.936 98.304V855.04c0 36.864 14.336 72.704 40.448 98.816 26.112 26.112 61.44 41.472 98.816 41.472H849.92c36.864 0 72.704-14.336 98.816-40.448 26.112-26.112 41.472-61.44 41.472-98.816V173.056c0-36.864-14.336-72.704-40.448-98.816-26.112-26.112-61.44-41.472-98.304-41.472h-1.536z m-60.416 635.392c0 10.24-4.096 19.968-11.264 27.136-7.168 7.168-16.896 11.264-27.136 11.264H491.008c-15.872 36.352-52.224 59.904-92.16 59.904-39.936 0-76.288-23.552-92.16-59.904H266.24c-10.24 0-19.968-4.096-27.136-11.264-7.168-7.168-11.264-16.896-11.264-27.136v-2.048c0-10.24 4.096-19.968 11.264-27.136 7.168-7.168 16.896-11.264 27.136-11.264h39.936c15.872-36.352 52.224-60.416 92.16-60.416s76.288 23.552 92.16 60.416h260.608c10.24 0 19.968 4.096 27.136 11.264 7.168 7.168 11.264 16.896 11.264 27.136v2.048z m0-300.544c0 10.24-4.096 19.968-11.264 27.136-7.168 7.168-16.896 11.264-27.136 11.264H711.68c-15.872 36.352-52.224 59.904-92.16 59.904s-76.288-23.552-92.16-59.904H266.24c-10.24 0-19.968-4.096-27.136-11.264-7.168-7.168-11.264-16.896-11.264-27.136v-2.048c0-10.24 4.096-19.968 11.264-27.136C246.784 331.264 256 327.68 266.24 327.68h260.608c15.872-36.352 52.224-59.904 92.16-59.904 39.936 0 76.288 23.552 92.16 59.904h39.936c10.24 0 19.968 4.096 27.136 11.264 7.168 7.168 11.264 16.896 11.264 27.136v1.536z m0 0" p-id="8396" fill="#ced4de"></path></svg>