<?xml version="1.0" standalone="no"?><!DOCTYPE svg PUBLIC "-//W3C//DTD SVG 1.1//EN" "http://www.w3.org/Graphics/SVG/1.1/DTD/svg11.dtd"><svg t="1569553955703" class="icon" viewBox="0 0 1024 1024" version="1.1" xmlns="http://www.w3.org/2000/svg" p-id="8691" xmlns:xlink="http://www.w3.org/1999/xlink" width="200" height="200"><defs><style type="text/css"></style></defs><path d="M603.136 144.896v444.928l-319.488 312.32c73.216 58.368 165.376 93.184 266.24 93.184 235.52 0 427.008-190.976 427.008-427.008 0-217.6-163.328-397.312-373.76-423.424z m0 0" p-id="8692" fill="#ced4de"></path><path d="M176.128 925.696L500.736 614.4 177.152 302.08C93.184 379.392 40.96 490.496 40.96 614.4c0 122.368 52.224 233.472 135.168 311.296z m0 0M540.16 563.712V32.768C386.56 32.768 247.296 92.16 143.872 189.44l396.288 374.272z m0 0" p-id="8693" fill="#ced4de"></path></svg>