<?xml version="1.0" standalone="no"?><!DOCTYPE svg PUBLIC "-//W3C//DTD SVG 1.1//EN" "http://www.w3.org/Graphics/SVG/1.1/DTD/svg11.dtd"><svg t="1569553935519" class="icon" viewBox="0 0 1024 1024" version="1.1" xmlns="http://www.w3.org/2000/svg" p-id="8247" xmlns:xlink="http://www.w3.org/1999/xlink" width="200" height="200"><defs><style type="text/css"></style></defs><path d="M892.928 814.08V151.552c0-32.768-28.672-60.416-64-60.416H191.488v-4.608c0-30.72 29.184-55.296 64-55.296h637.44c35.328 0 64 25.6 64 55.296v671.744c0 31.232-29.184 55.808-64 55.808zM828.416 210.432v723.456c0 33.28-29.184 59.904-64 59.904H126.976c-35.328 0-64-27.648-64-59.904V210.432c0-32.768 29.184-59.904 64-59.904h637.44c35.328 0 64 27.648 64 59.904zM470.528 370.688l-232.448 297.472c-4.096 5.12-8.704 13.824-11.264 19.968l-35.84 235.52c-2.048 6.144 0 7.68 5.12 4.608L399.36 837.12c5.12-3.584 12.288-10.752 16.384-15.36l233.472-298.496c4.096-5.12 3.072-12.288-1.536-16.384L486.4 369.152c-2.048-1.536-4.608-2.56-7.168-2.56-3.584 0-6.656 1.536-8.704 4.096zM599.04 226.304c-2.048-1.536-4.608-2.56-7.168-2.56-3.584 0-6.656 1.536-8.704 4.096l-56.32 71.68c-1.536 2.048-2.56 4.608-2.56 7.168 0 3.584 1.536 6.656 4.096 9.216l161.792 137.216c2.048 1.536 4.096 2.56 7.168 2.56 3.584 0 6.656-1.536 8.704-4.096l56.32-71.68c4.096-5.12 3.072-12.288-1.536-16.384L599.04 226.304z m0 0" p-id="8248" fill="#ced4de"></path></svg>