<?xml version="1.0" standalone="no"?><!DOCTYPE svg PUBLIC "-//W3C//DTD SVG 1.1//EN" "http://www.w3.org/Graphics/SVG/1.1/DTD/svg11.dtd"><svg t="1569553662168" class="icon" viewBox="0 0 1024 1024" version="1.1" xmlns="http://www.w3.org/2000/svg" p-id="3671" xmlns:xlink="http://www.w3.org/1999/xlink" width="200" height="200"><defs><style type="text/css"></style></defs><path d="M62.464 963.072c-17.408 0-31.744-14.848-31.744-31.744V251.392c0-17.92 13.824-31.744 31.744-31.744h270.848l1.536-8.704c5.632-36.864 23.04-70.656 50.688-97.792 32.768-32.768 78.336-51.712 124.416-51.712 48.128 0 93.184 18.432 126.464 51.712 26.624 27.136 44.032 61.952 50.176 97.792l1.536 8.704H962.56c8.192 0 16.896 3.584 22.528 9.728 5.632 6.144 9.216 13.824 8.704 22.016v679.936c0 17.92-13.824 31.744-31.744 31.744H62.464z m32.768-62.976h835.072v-360.96h-273.92v135.168H372.736l-3.072-135.168H95.232v360.96z m337.92-289.792h158.72v-71.68H431.616l1.536 71.68z m-337.92-133.12h835.072v-194.56H95.232v194.56z m334.336-320.512c-13.312 11.776-23.552 29.184-29.184 49.152l-3.584 13.312h226.304l-3.584-13.312c-5.632-19.968-15.872-37.888-29.184-49.664-23.04-22.528-51.2-34.304-81.408-34.304-28.16 0.512-57.344 13.312-79.36 34.816z" p-id="3672" fill="#ced4de"></path></svg>