<?xml version="1.0" standalone="no"?><!DOCTYPE svg PUBLIC "-//W3C//DTD SVG 1.1//EN" "http://www.w3.org/Graphics/SVG/1.1/DTD/svg11.dtd"><svg t="1569553534809" class="icon" viewBox="0 0 1024 1024" version="1.1" xmlns="http://www.w3.org/2000/svg" p-id="2177" xmlns:xlink="http://www.w3.org/1999/xlink" width="200" height="200"><defs><style type="text/css"></style></defs><path d="M269.824 994.816V271.36c0-133.632 108.544-242.176 242.176-242.176s242.176 108.544 242.176 242.176v723.456H269.824zM691.2 931.84V271.36c0-98.816-80.384-179.2-179.2-179.2S332.8 172.544 332.8 271.36v660.48h358.4z" p-id="2178" fill="#ced4de"></path><path d="M120.832 994.816c-16.896 0-31.744-14.848-31.744-31.744s14.848-31.744 31.744-31.744h782.336c16.896 0 31.744 14.848 31.744 31.744s-14.848 31.744-31.744 31.744H120.832zM211.456 294.912c-17.408 0-31.744-14.336-31.744-31.744 0-16.896 14.848-31.744 31.744-31.744h601.6c17.408 0 31.744 14.336 31.744 31.744s-14.336 31.744-31.744 31.744H211.456zM512 653.824c-67.072 0-121.856-54.784-121.856-121.856S444.928 410.112 512 410.112s121.856 54.784 121.856 121.856-54.784 121.856-121.856 121.856z m0-180.224c-32.256 0-58.88 26.112-58.88 58.88 0 32.256 26.112 58.88 58.88 58.88s58.88-26.112 58.88-58.88-26.624-58.88-58.88-58.88zM269.824 590.848H212.48V473.6h57.344V410.624H211.456c-33.792 0-61.44 27.648-61.44 61.44v120.32c0 33.792 27.648 61.44 61.44 61.44h58.368v-62.976zM813.056 410.624H691.2v62.976h120.32v117.248H691.2v62.976h121.856c33.792 0 61.44-27.648 61.44-61.44V472.064c0-33.792-27.648-61.44-61.44-61.44z" p-id="2179" fill="#ced4de"></path></svg>