<?xml version="1.0" standalone="no"?><!DOCTYPE svg PUBLIC "-//W3C//DTD SVG 1.1//EN" "http://www.w3.org/Graphics/SVG/1.1/DTD/svg11.dtd"><svg class="icon" width="200px" height="200.00px" viewBox="0 0 1024 1024" version="1.1" xmlns="http://www.w3.org/2000/svg"><path d="M564.224 359.424c30.208 0 54.784-24.576 54.784-54.784 0-30.208-24.576-54.784-54.784-54.784-30.208 0-54.784 24.576-54.784 54.784 0 30.208 24.576 54.784 54.784 54.784zM528.384 695.296l-5.12 2.56 1.536-5.632c40.96-160.768 59.392-262.656 51.2-279.04-2.56-5.12-7.68-8.192-14.336-8.192-32.256 0-138.24 84.48-158.72 101.376l-3.584 2.56v18.944l78.848-19.968-1.024 4.096c-7.68 38.912-33.792 168.96-43.52 197.12-7.168 20.48-6.656 38.4 2.048 50.688 4.608 6.656 13.824 14.336 31.232 14.336 7.168 0 15.872-1.536 24.576-4.096 50.688-15.36 94.72-90.112 95.232-91.136l20.992-34.816-33.792 23.04c-19.456 12.8-34.816 22.016-45.568 28.16z" fill="#ced4de" /><path d="M508.928 988.16c-262.656 0-476.16-213.504-476.16-476.16s213.504-476.16 476.16-476.16 476.16 213.504 476.16 476.16-213.504 476.16-476.16 476.16z m0-887.296c-226.816 0-411.136 184.32-411.136 411.136s184.32 411.136 411.136 411.136 411.136-184.32 411.136-411.136-184.32-411.136-411.136-411.136z" fill="#ced4de" /></svg>