<?xml version="1.0" standalone="no"?><!DOCTYPE svg PUBLIC "-//W3C//DTD SVG 1.1//EN" "http://www.w3.org/Graphics/SVG/1.1/DTD/svg11.dtd"><svg t="1569553656718" class="icon" viewBox="0 0 1024 1024" version="1.1" xmlns="http://www.w3.org/2000/svg" p-id="3520" xmlns:xlink="http://www.w3.org/1999/xlink" width="200" height="200"><defs><style type="text/css"></style></defs><path d="M509.952 971.776c-167.424-67.072-285.184-163.328-349.696-286.72C92.16 542.208 74.752 374.784 108.544 186.88l0.512-3.072L512 51.712l402.944 126.464 0.512 3.072c34.816 197.632 15.872 362.496-57.344 503.808-58.368 122.368-174.08 218.624-344.064 286.72l-2.048 1.024-2.048-1.024zM169.472 231.424c-27.648 162.816-10.752 302.08 51.2 425.984 53.76 100.864 154.112 182.784 291.328 235.52 142.336-62.976 236.032-141.824 285.696-241.152 60.928-116.224 79.36-253.44 56.832-420.352L512 119.296 169.472 231.424z" p-id="3521" fill="#ced4de"></path><path d="M509.44 992.256c-174.592-70.144-297.472-170.496-365.056-299.52-71.68-148.992-89.6-324.096-53.76-520.192l0.512-3.584L512 30.72l420.864 132.096 0.512 3.584c36.352 206.336 16.896 378.368-59.904 525.824-60.928 128-181.76 228.352-358.912 299.52l-2.56 1.536-2.56-1.024zM155.648 220.16c-28.672 168.96-11.264 313.856 53.248 442.88 55.808 104.96 160.256 189.952 302.592 245.248 147.968-65.536 245.248-147.456 296.96-250.88 62.976-120.832 82.432-263.68 59.392-437.248L512 103.424 155.648 220.16z" p-id="3522" fill="#ced4de"></path><path d="M301.056 434.688l56.832-50.176 154.112 154.112 212.992-213.504 57.344 50.176-270.336 270.336z" p-id="3523" fill="#ced4de"></path><path d="M311.296 437.76l53.248-46.592 147.456 147.968 204.8-204.8 53.248 46.592-258.048 257.536z" p-id="3524" fill="#ced4de"></path></svg>