<?xml version="1.0" standalone="no"?><!DOCTYPE svg PUBLIC "-//W3C//DTD SVG 1.1//EN" "http://www.w3.org/Graphics/SVG/1.1/DTD/svg11.dtd"><svg class="icon" width="200px" height="200.00px" viewBox="0 0 1024 1024" version="1.1" xmlns="http://www.w3.org/2000/svg"><path fill="#515151" d="M336.384 128c17.408 0 31.744 6.144 44.032 17.92 12.288 11.776 18.432 26.624 18.432 43.52v248.32c0 17.408-6.144 31.744-18.432 44.032-12.288 12.288-27.136 18.432-44.032 18.432H88.064c-17.408 0-31.744-6.144-43.52-18.432-11.776-12.288-17.92-27.136-17.92-44.032V189.44c0-17.408 6.144-31.744 17.92-43.52s26.624-17.92 43.52-17.92h248.32z m0 496.128c17.408 0 31.744 6.144 44.032 17.92 12.288 11.776 18.432 26.624 18.432 43.52v248.832c0 17.408-6.144 31.744-18.432 43.52-12.288 11.776-27.136 17.92-44.032 17.92H88.064c-17.408 0-31.744-6.144-43.52-17.92s-17.92-26.624-17.92-43.52V686.08c0-17.408 6.144-31.744 17.92-43.52s26.624-17.92 43.52-17.92h248.32z m497.152 0c17.408 0 31.744 6.144 43.52 17.92s17.92 26.624 17.92 43.52v248.832c0 17.408-6.144 31.744-17.92 43.52s-26.624 17.92-43.52 17.92h-248.32c-17.408 0-31.744-6.144-44.032-17.92-12.288-11.776-18.432-26.624-18.432-43.52V686.08c0-17.408 6.144-31.744 18.432-43.52 12.288-11.776 27.136-17.92 44.032-17.92h248.32z m137.728-386.56c13.312 13.312 19.968 28.672 19.968 46.592s-6.656 33.28-19.968 45.568l-184.32 184.32c-13.312 13.312-28.672 19.968-46.08 19.968-17.408 0-32.768-6.656-46.08-19.968l-184.32-184.32C497.664 316.928 491.52 302.08 491.52 284.16s6.144-33.28 18.944-46.592l184.32-184.32c13.312-12.8 28.672-18.944 46.08-18.944 17.408 0 32.768 6.144 46.08 18.944l184.32 184.32z m0 0" /></svg>