<?xml version="1.0" standalone="no"?><!DOCTYPE svg PUBLIC "-//W3C//DTD SVG 1.1//EN" "http://www.w3.org/Graphics/SVG/1.1/DTD/svg11.dtd"><svg class="icon" width="200px" height="200.00px" viewBox="0 0 1024 1024" version="1.1" xmlns="http://www.w3.org/2000/svg"><path d="M523.264 994.816c-266.24 0-482.816-216.576-482.816-482.816S257.024 29.696 523.264 29.696 1005.568 245.76 1005.568 512s-216.576 482.816-482.304 482.816z m0-902.656c-231.424 0-419.84 188.416-419.84 419.84s188.416 419.84 419.84 419.84 419.84-188.416 419.84-419.84-188.416-419.84-419.84-419.84z" fill="#ced4de" /><path d="M264.192 533.504c-16.384 0-24.576-10.752-24.576-31.232 0-20.992 8.192-31.232 24.576-31.232h517.632c16.384 0 24.576 10.752 24.576 31.232 0 20.992-8.192 31.232-24.576 31.232H264.192z" fill="#ced4de" /></svg>